<mxfile host="Electron" modified="2024-04-17T22:28:55.397Z" agent="Mozilla/5.0 (Windows NT 10.0; Win64; x64) AppleWebKit/537.36 (KHTML, like Gecko) draw.io/24.1.0 Chrome/120.0.6099.109 Electron/28.1.0 Safari/537.36" etag="WduXZE2ACS5urEiCNT3n" version="24.1.0" type="device">
  <diagram name="Onboarding" id="0DZ97VtpyuKybKFLZ9yq">
    <mxGraphModel dx="3200" dy="887" grid="1" gridSize="10" guides="1" tooltips="1" connect="1" arrows="1" fold="1" page="1" pageScale="1" pageWidth="850" pageHeight="1100" math="0" shadow="0">
      <root>
        <mxCell id="0" />
        <mxCell id="1" parent="0" />
        <mxCell id="_47NS-0Bb0KeoE0VQuBK-7" style="edgeStyle=orthogonalEdgeStyle;rounded=0;orthogonalLoop=1;jettySize=auto;html=1;entryX=0;entryY=0.5;entryDx=0;entryDy=0;exitX=0.5;exitY=1;exitDx=0;exitDy=0;" parent="1" source="_47NS-0Bb0KeoE0VQuBK-3" target="_47NS-0Bb0KeoE0VQuBK-5" edge="1">
          <mxGeometry relative="1" as="geometry" />
        </mxCell>
        <mxCell id="_47NS-0Bb0KeoE0VQuBK-8" style="edgeStyle=orthogonalEdgeStyle;rounded=0;orthogonalLoop=1;jettySize=auto;html=1;exitX=0.5;exitY=1;exitDx=0;exitDy=0;entryX=0;entryY=0.5;entryDx=0;entryDy=0;" parent="1" source="_47NS-0Bb0KeoE0VQuBK-3" target="_47NS-0Bb0KeoE0VQuBK-4" edge="1">
          <mxGeometry relative="1" as="geometry" />
        </mxCell>
        <mxCell id="_47NS-0Bb0KeoE0VQuBK-9" style="edgeStyle=orthogonalEdgeStyle;rounded=0;orthogonalLoop=1;jettySize=auto;html=1;exitX=0.5;exitY=1;exitDx=0;exitDy=0;entryX=0;entryY=0.5;entryDx=0;entryDy=0;" parent="1" source="_47NS-0Bb0KeoE0VQuBK-3" target="_47NS-0Bb0KeoE0VQuBK-6" edge="1">
          <mxGeometry relative="1" as="geometry" />
        </mxCell>
        <mxCell id="_47NS-0Bb0KeoE0VQuBK-3" value="Onboarding&lt;div&gt;&lt;br&gt;&lt;/div&gt;&lt;div style=&quot;text-align: left;&quot;&gt;Are you a&lt;/div&gt;&lt;div style=&quot;text-align: left;&quot;&gt;Dev?&lt;/div&gt;&lt;div style=&quot;text-align: left;&quot;&gt;TL?&lt;/div&gt;&lt;div style=&quot;text-align: left;&quot;&gt;PO?&lt;/div&gt;" style="rounded=0;whiteSpace=wrap;html=1;" parent="1" vertex="1">
          <mxGeometry x="320" y="60" width="130" height="100" as="geometry" />
        </mxCell>
        <mxCell id="_47NS-0Bb0KeoE0VQuBK-4" value="Dev" style="rounded=0;whiteSpace=wrap;html=1;" parent="1" vertex="1">
          <mxGeometry x="490" y="280" width="120" height="60" as="geometry" />
        </mxCell>
        <mxCell id="_47NS-0Bb0KeoE0VQuBK-11" style="edgeStyle=orthogonalEdgeStyle;rounded=0;orthogonalLoop=1;jettySize=auto;html=1;exitX=1;exitY=0.5;exitDx=0;exitDy=0;entryX=0;entryY=0.5;entryDx=0;entryDy=0;" parent="1" source="_47NS-0Bb0KeoE0VQuBK-5" target="_47NS-0Bb0KeoE0VQuBK-10" edge="1">
          <mxGeometry relative="1" as="geometry" />
        </mxCell>
        <mxCell id="_47NS-0Bb0KeoE0VQuBK-5" value="TL" style="rounded=0;whiteSpace=wrap;html=1;" parent="1" vertex="1">
          <mxGeometry x="490" y="200" width="120" height="60" as="geometry" />
        </mxCell>
        <mxCell id="_47NS-0Bb0KeoE0VQuBK-6" value="PO" style="rounded=0;whiteSpace=wrap;html=1;" parent="1" vertex="1">
          <mxGeometry x="490" y="360" width="120" height="60" as="geometry" />
        </mxCell>
        <mxCell id="_47NS-0Bb0KeoE0VQuBK-13" style="edgeStyle=orthogonalEdgeStyle;rounded=0;orthogonalLoop=1;jettySize=auto;html=1;exitX=0.5;exitY=1;exitDx=0;exitDy=0;entryX=0;entryY=0.5;entryDx=0;entryDy=0;" parent="1" source="_47NS-0Bb0KeoE0VQuBK-10" target="_47NS-0Bb0KeoE0VQuBK-12" edge="1">
          <mxGeometry relative="1" as="geometry" />
        </mxCell>
        <mxCell id="_47NS-0Bb0KeoE0VQuBK-26" style="edgeStyle=orthogonalEdgeStyle;rounded=0;orthogonalLoop=1;jettySize=auto;html=1;exitX=0.5;exitY=1;exitDx=0;exitDy=0;entryX=0;entryY=0.5;entryDx=0;entryDy=0;" parent="1" source="_47NS-0Bb0KeoE0VQuBK-10" target="_47NS-0Bb0KeoE0VQuBK-23" edge="1">
          <mxGeometry relative="1" as="geometry" />
        </mxCell>
        <mxCell id="_47NS-0Bb0KeoE0VQuBK-27" style="edgeStyle=orthogonalEdgeStyle;rounded=0;orthogonalLoop=1;jettySize=auto;html=1;exitX=0.5;exitY=1;exitDx=0;exitDy=0;entryX=0;entryY=0.5;entryDx=0;entryDy=0;" parent="1" source="_47NS-0Bb0KeoE0VQuBK-10" target="_47NS-0Bb0KeoE0VQuBK-24" edge="1">
          <mxGeometry relative="1" as="geometry" />
        </mxCell>
        <mxCell id="_47NS-0Bb0KeoE0VQuBK-28" style="edgeStyle=orthogonalEdgeStyle;rounded=0;orthogonalLoop=1;jettySize=auto;html=1;exitX=0.5;exitY=1;exitDx=0;exitDy=0;entryX=0;entryY=0.5;entryDx=0;entryDy=0;" parent="1" source="_47NS-0Bb0KeoE0VQuBK-10" target="_47NS-0Bb0KeoE0VQuBK-25" edge="1">
          <mxGeometry relative="1" as="geometry" />
        </mxCell>
        <mxCell id="_47NS-0Bb0KeoE0VQuBK-30" style="edgeStyle=orthogonalEdgeStyle;rounded=0;orthogonalLoop=1;jettySize=auto;html=1;exitX=0.5;exitY=1;exitDx=0;exitDy=0;entryX=0;entryY=0.5;entryDx=0;entryDy=0;" parent="1" source="_47NS-0Bb0KeoE0VQuBK-10" target="_47NS-0Bb0KeoE0VQuBK-29" edge="1">
          <mxGeometry relative="1" as="geometry" />
        </mxCell>
        <mxCell id="_47NS-0Bb0KeoE0VQuBK-33" style="edgeStyle=orthogonalEdgeStyle;rounded=0;orthogonalLoop=1;jettySize=auto;html=1;exitX=0.5;exitY=1;exitDx=0;exitDy=0;entryX=0;entryY=0.5;entryDx=0;entryDy=0;" parent="1" source="_47NS-0Bb0KeoE0VQuBK-10" target="_47NS-0Bb0KeoE0VQuBK-31" edge="1">
          <mxGeometry relative="1" as="geometry" />
        </mxCell>
        <mxCell id="_47NS-0Bb0KeoE0VQuBK-34" style="edgeStyle=orthogonalEdgeStyle;rounded=0;orthogonalLoop=1;jettySize=auto;html=1;exitX=0.5;exitY=1;exitDx=0;exitDy=0;entryX=0;entryY=0.5;entryDx=0;entryDy=0;" parent="1" source="_47NS-0Bb0KeoE0VQuBK-10" target="_47NS-0Bb0KeoE0VQuBK-32" edge="1">
          <mxGeometry relative="1" as="geometry" />
        </mxCell>
        <mxCell id="_47NS-0Bb0KeoE0VQuBK-10" value="Welcome page" style="rounded=0;whiteSpace=wrap;html=1;" parent="1" vertex="1">
          <mxGeometry x="710" y="200" width="120" height="60" as="geometry" />
        </mxCell>
        <mxCell id="_47NS-0Bb0KeoE0VQuBK-19" style="edgeStyle=orthogonalEdgeStyle;rounded=0;orthogonalLoop=1;jettySize=auto;html=1;exitX=1;exitY=0.5;exitDx=0;exitDy=0;entryX=0;entryY=0.5;entryDx=0;entryDy=0;" parent="1" source="_47NS-0Bb0KeoE0VQuBK-12" target="_47NS-0Bb0KeoE0VQuBK-15" edge="1">
          <mxGeometry relative="1" as="geometry" />
        </mxCell>
        <mxCell id="_47NS-0Bb0KeoE0VQuBK-20" style="edgeStyle=orthogonalEdgeStyle;rounded=0;orthogonalLoop=1;jettySize=auto;html=1;exitX=1;exitY=0.5;exitDx=0;exitDy=0;entryX=0;entryY=0.5;entryDx=0;entryDy=0;" parent="1" source="_47NS-0Bb0KeoE0VQuBK-12" target="_47NS-0Bb0KeoE0VQuBK-16" edge="1">
          <mxGeometry relative="1" as="geometry" />
        </mxCell>
        <mxCell id="_47NS-0Bb0KeoE0VQuBK-22" style="edgeStyle=orthogonalEdgeStyle;rounded=0;orthogonalLoop=1;jettySize=auto;html=1;exitX=1;exitY=0.5;exitDx=0;exitDy=0;entryX=0;entryY=0.5;entryDx=0;entryDy=0;" parent="1" source="_47NS-0Bb0KeoE0VQuBK-12" target="_47NS-0Bb0KeoE0VQuBK-21" edge="1">
          <mxGeometry relative="1" as="geometry" />
        </mxCell>
        <mxCell id="_47NS-0Bb0KeoE0VQuBK-18" style="edgeStyle=orthogonalEdgeStyle;rounded=0;orthogonalLoop=1;jettySize=auto;html=1;exitX=1;exitY=0.5;exitDx=0;exitDy=0;entryX=0;entryY=0.5;entryDx=0;entryDy=0;" parent="1" source="_47NS-0Bb0KeoE0VQuBK-15" target="_47NS-0Bb0KeoE0VQuBK-17" edge="1">
          <mxGeometry relative="1" as="geometry" />
        </mxCell>
        <mxCell id="_47NS-0Bb0KeoE0VQuBK-55" style="edgeStyle=orthogonalEdgeStyle;rounded=0;orthogonalLoop=1;jettySize=auto;html=1;exitX=1;exitY=0.5;exitDx=0;exitDy=0;entryX=0;entryY=0.5;entryDx=0;entryDy=0;" parent="1" source="_47NS-0Bb0KeoE0VQuBK-15" target="_47NS-0Bb0KeoE0VQuBK-54" edge="1">
          <mxGeometry relative="1" as="geometry" />
        </mxCell>
        <mxCell id="_47NS-0Bb0KeoE0VQuBK-15" value="Protime info" style="rounded=0;whiteSpace=wrap;html=1;" parent="1" vertex="1">
          <mxGeometry x="1040" y="580" width="120" height="60" as="geometry" />
        </mxCell>
        <mxCell id="lC9MLNywModh4IazLdWR-2" style="edgeStyle=orthogonalEdgeStyle;rounded=0;orthogonalLoop=1;jettySize=auto;html=1;exitX=1;exitY=0.5;exitDx=0;exitDy=0;entryX=0;entryY=0.5;entryDx=0;entryDy=0;" edge="1" parent="1" source="_47NS-0Bb0KeoE0VQuBK-12" target="lC9MLNywModh4IazLdWR-1">
          <mxGeometry relative="1" as="geometry" />
        </mxCell>
        <mxCell id="_47NS-0Bb0KeoE0VQuBK-12" value="Organization info" style="rounded=0;whiteSpace=wrap;html=1;" parent="1" vertex="1">
          <mxGeometry x="860" y="580" width="120" height="60" as="geometry" />
        </mxCell>
        <mxCell id="_47NS-0Bb0KeoE0VQuBK-16" value="sdworx info" style="rounded=0;whiteSpace=wrap;html=1;" parent="1" vertex="1">
          <mxGeometry x="1040" y="660" width="120" height="60" as="geometry" />
        </mxCell>
        <mxCell id="_47NS-0Bb0KeoE0VQuBK-17" value="team setup" style="rounded=0;whiteSpace=wrap;html=1;" parent="1" vertex="1">
          <mxGeometry x="1240" y="580" width="120" height="60" as="geometry" />
        </mxCell>
        <mxCell id="_47NS-0Bb0KeoE0VQuBK-21" value="key contacts&lt;div&gt;&amp;amp; contact info&lt;/div&gt;" style="rounded=0;whiteSpace=wrap;html=1;" parent="1" vertex="1">
          <mxGeometry x="1040" y="750" width="120" height="60" as="geometry" />
        </mxCell>
        <mxCell id="_47NS-0Bb0KeoE0VQuBK-38" value="" style="edgeStyle=orthogonalEdgeStyle;rounded=0;orthogonalLoop=1;jettySize=auto;html=1;" parent="1" source="_47NS-0Bb0KeoE0VQuBK-23" target="_47NS-0Bb0KeoE0VQuBK-37" edge="1">
          <mxGeometry relative="1" as="geometry" />
        </mxCell>
        <mxCell id="_47NS-0Bb0KeoE0VQuBK-23" value="acces &amp;amp; security" style="rounded=0;whiteSpace=wrap;html=1;" parent="1" vertex="1">
          <mxGeometry x="860" y="1110" width="120" height="60" as="geometry" />
        </mxCell>
        <mxCell id="_47NS-0Bb0KeoE0VQuBK-24" value="tools &amp;amp; resources" style="rounded=0;whiteSpace=wrap;html=1;" parent="1" vertex="1">
          <mxGeometry x="860" y="1250" width="120" height="60" as="geometry" />
        </mxCell>
        <mxCell id="_47NS-0Bb0KeoE0VQuBK-46" style="edgeStyle=orthogonalEdgeStyle;rounded=0;orthogonalLoop=1;jettySize=auto;html=1;exitX=1;exitY=0.5;exitDx=0;exitDy=0;entryX=0;entryY=0.5;entryDx=0;entryDy=0;" parent="1" source="_47NS-0Bb0KeoE0VQuBK-25" target="_47NS-0Bb0KeoE0VQuBK-43" edge="1">
          <mxGeometry relative="1" as="geometry" />
        </mxCell>
        <mxCell id="_47NS-0Bb0KeoE0VQuBK-47" style="edgeStyle=orthogonalEdgeStyle;rounded=0;orthogonalLoop=1;jettySize=auto;html=1;exitX=1;exitY=0.5;exitDx=0;exitDy=0;entryX=0;entryY=0.5;entryDx=0;entryDy=0;" parent="1" source="_47NS-0Bb0KeoE0VQuBK-25" target="_47NS-0Bb0KeoE0VQuBK-44" edge="1">
          <mxGeometry relative="1" as="geometry" />
        </mxCell>
        <mxCell id="_47NS-0Bb0KeoE0VQuBK-48" style="edgeStyle=orthogonalEdgeStyle;rounded=0;orthogonalLoop=1;jettySize=auto;html=1;exitX=1;exitY=0.5;exitDx=0;exitDy=0;entryX=0;entryY=0.5;entryDx=0;entryDy=0;" parent="1" source="_47NS-0Bb0KeoE0VQuBK-25" target="_47NS-0Bb0KeoE0VQuBK-45" edge="1">
          <mxGeometry relative="1" as="geometry" />
        </mxCell>
        <mxCell id="_47NS-0Bb0KeoE0VQuBK-51" style="edgeStyle=orthogonalEdgeStyle;rounded=0;orthogonalLoop=1;jettySize=auto;html=1;exitX=1;exitY=0.5;exitDx=0;exitDy=0;entryX=0;entryY=0.5;entryDx=0;entryDy=0;" parent="1" source="_47NS-0Bb0KeoE0VQuBK-25" target="_47NS-0Bb0KeoE0VQuBK-49" edge="1">
          <mxGeometry relative="1" as="geometry" />
        </mxCell>
        <mxCell id="_47NS-0Bb0KeoE0VQuBK-52" style="edgeStyle=orthogonalEdgeStyle;rounded=0;orthogonalLoop=1;jettySize=auto;html=1;exitX=1;exitY=0.5;exitDx=0;exitDy=0;entryX=0;entryY=0.5;entryDx=0;entryDy=0;" parent="1" source="_47NS-0Bb0KeoE0VQuBK-25" target="_47NS-0Bb0KeoE0VQuBK-50" edge="1">
          <mxGeometry relative="1" as="geometry" />
        </mxCell>
        <mxCell id="RFYzDGtTMop1sDjm84ll-7" style="edgeStyle=orthogonalEdgeStyle;rounded=0;orthogonalLoop=1;jettySize=auto;html=1;exitX=1;exitY=0.5;exitDx=0;exitDy=0;entryX=0;entryY=0.5;entryDx=0;entryDy=0;" parent="1" source="_47NS-0Bb0KeoE0VQuBK-25" target="RFYzDGtTMop1sDjm84ll-6" edge="1">
          <mxGeometry relative="1" as="geometry" />
        </mxCell>
        <mxCell id="RFYzDGtTMop1sDjm84ll-9" style="edgeStyle=orthogonalEdgeStyle;rounded=0;orthogonalLoop=1;jettySize=auto;html=1;exitX=1;exitY=0.5;exitDx=0;exitDy=0;entryX=0;entryY=0.5;entryDx=0;entryDy=0;" parent="1" source="_47NS-0Bb0KeoE0VQuBK-25" target="RFYzDGtTMop1sDjm84ll-8" edge="1">
          <mxGeometry relative="1" as="geometry" />
        </mxCell>
        <mxCell id="RFYzDGtTMop1sDjm84ll-11" style="edgeStyle=orthogonalEdgeStyle;rounded=0;orthogonalLoop=1;jettySize=auto;html=1;exitX=1;exitY=0.5;exitDx=0;exitDy=0;entryX=0;entryY=0.5;entryDx=0;entryDy=0;" parent="1" source="_47NS-0Bb0KeoE0VQuBK-25" target="RFYzDGtTMop1sDjm84ll-10" edge="1">
          <mxGeometry relative="1" as="geometry" />
        </mxCell>
        <mxCell id="_47NS-0Bb0KeoE0VQuBK-25" value="policies &amp;amp; procedures" style="rounded=0;whiteSpace=wrap;html=1;" parent="1" vertex="1">
          <mxGeometry x="860" y="1390" width="120" height="60" as="geometry" />
        </mxCell>
        <mxCell id="_47NS-0Bb0KeoE0VQuBK-36" value="" style="edgeStyle=orthogonalEdgeStyle;rounded=0;orthogonalLoop=1;jettySize=auto;html=1;" parent="1" source="_47NS-0Bb0KeoE0VQuBK-29" target="_47NS-0Bb0KeoE0VQuBK-35" edge="1">
          <mxGeometry relative="1" as="geometry" />
        </mxCell>
        <mxCell id="_47NS-0Bb0KeoE0VQuBK-40" style="edgeStyle=orthogonalEdgeStyle;rounded=0;orthogonalLoop=1;jettySize=auto;html=1;exitX=0.5;exitY=1;exitDx=0;exitDy=0;entryX=0.5;entryY=0;entryDx=0;entryDy=0;" parent="1" source="_47NS-0Bb0KeoE0VQuBK-29" target="_47NS-0Bb0KeoE0VQuBK-23" edge="1">
          <mxGeometry relative="1" as="geometry">
            <Array as="points">
              <mxPoint x="920" y="430" />
              <mxPoint x="830" y="430" />
              <mxPoint x="830" y="800" />
              <mxPoint x="920" y="800" />
            </Array>
          </mxGeometry>
        </mxCell>
        <mxCell id="_47NS-0Bb0KeoE0VQuBK-41" value="check if acces to all" style="edgeLabel;html=1;align=center;verticalAlign=middle;resizable=0;points=[];" parent="_47NS-0Bb0KeoE0VQuBK-40" vertex="1" connectable="0">
          <mxGeometry x="0.7027" y="-1" relative="1" as="geometry">
            <mxPoint as="offset" />
          </mxGeometry>
        </mxCell>
        <mxCell id="_47NS-0Bb0KeoE0VQuBK-29" value="Onboarding checklist" style="rounded=0;whiteSpace=wrap;html=1;" parent="1" vertex="1">
          <mxGeometry x="860" y="340" width="120" height="60" as="geometry" />
        </mxCell>
        <mxCell id="_47NS-0Bb0KeoE0VQuBK-31" value="FAQ" style="rounded=0;whiteSpace=wrap;html=1;fillColor=#f8cecc;strokeColor=#b85450;" parent="1" vertex="1">
          <mxGeometry x="890" y="2080" width="120" height="60" as="geometry" />
        </mxCell>
        <mxCell id="_47NS-0Bb0KeoE0VQuBK-32" value="Glossary" style="rounded=0;whiteSpace=wrap;html=1;" parent="1" vertex="1">
          <mxGeometry x="890" y="2240" width="120" height="60" as="geometry" />
        </mxCell>
        <mxCell id="_47NS-0Bb0KeoE0VQuBK-35" value="receiving items&lt;div&gt;laptop setup&lt;/div&gt;&lt;div&gt;email adresses&lt;/div&gt;&lt;div&gt;intro sessions&lt;/div&gt;&lt;div&gt;training list&lt;/div&gt;&lt;div&gt;invite to meetings&lt;/div&gt;" style="whiteSpace=wrap;html=1;rounded=0;" parent="1" vertex="1">
          <mxGeometry x="1060" y="305" width="120" height="130" as="geometry" />
        </mxCell>
        <mxCell id="_47NS-0Bb0KeoE0VQuBK-37" value="confluence&lt;div&gt;gitlab&lt;/div&gt;&lt;div&gt;octopus&lt;/div&gt;&lt;div&gt;slack&lt;/div&gt;&lt;div&gt;innform&lt;/div&gt;&lt;div&gt;sharepoint&lt;br&gt;&lt;div&gt;mobile setup&lt;/div&gt;&lt;/div&gt;&lt;div&gt;testopia&lt;/div&gt;&lt;div&gt;teamtailor&lt;/div&gt;&lt;div&gt;goodhabitz&lt;/div&gt;&lt;div&gt;huapii&lt;/div&gt;&lt;div&gt;slack&lt;/div&gt;&lt;div&gt;azure devops&lt;/div&gt;&lt;div&gt;productboard&lt;/div&gt;&lt;div&gt;loop&lt;/div&gt;&lt;div&gt;...&lt;/div&gt;" style="rounded=0;whiteSpace=wrap;html=1;" parent="1" vertex="1">
          <mxGeometry x="1300" y="1010" width="210" height="260" as="geometry" />
        </mxCell>
        <mxCell id="_47NS-0Bb0KeoE0VQuBK-42" value="welke email waar?" style="shape=note;whiteSpace=wrap;html=1;backgroundOutline=1;darkOpacity=0.05;fillColor=#f8cecc;strokeColor=#b85450;" parent="1" vertex="1">
          <mxGeometry x="960" y="1150" width="130" height="60" as="geometry" />
        </mxCell>
        <mxCell id="lC9MLNywModh4IazLdWR-4" value="" style="edgeStyle=orthogonalEdgeStyle;rounded=0;orthogonalLoop=1;jettySize=auto;html=1;" edge="1" parent="1" source="_47NS-0Bb0KeoE0VQuBK-43" target="lC9MLNywModh4IazLdWR-3">
          <mxGeometry relative="1" as="geometry" />
        </mxCell>
        <mxCell id="_47NS-0Bb0KeoE0VQuBK-43" value="HR gerelateerd zaken: afwezigheden, verlof aanvragen, ziektes, ..." style="rounded=0;whiteSpace=wrap;html=1;" parent="1" vertex="1">
          <mxGeometry x="1090" y="1390" width="120" height="60" as="geometry" />
        </mxCell>
        <mxCell id="_47NS-0Bb0KeoE0VQuBK-44" value="kanban werking" style="rounded=0;whiteSpace=wrap;html=1;" parent="1" vertex="1">
          <mxGeometry x="1090" y="1460" width="120" height="60" as="geometry" />
        </mxCell>
        <mxCell id="_47NS-0Bb0KeoE0VQuBK-45" value="schade aan company items" style="rounded=0;whiteSpace=wrap;html=1;" parent="1" vertex="1">
          <mxGeometry x="1090" y="1540" width="120" height="60" as="geometry" />
        </mxCell>
        <mxCell id="_47NS-0Bb0KeoE0VQuBK-49" value="ontslag" style="rounded=0;whiteSpace=wrap;html=1;" parent="1" vertex="1">
          <mxGeometry x="1090" y="1630" width="120" height="60" as="geometry" />
        </mxCell>
        <mxCell id="_47NS-0Bb0KeoE0VQuBK-50" value="loonsopslag, promotie, interne mobiliteit" style="rounded=0;whiteSpace=wrap;html=1;" parent="1" vertex="1">
          <mxGeometry x="1090" y="1720" width="120" height="60" as="geometry" />
        </mxCell>
        <mxCell id="_47NS-0Bb0KeoE0VQuBK-53" style="edgeStyle=orthogonalEdgeStyle;rounded=0;orthogonalLoop=1;jettySize=auto;html=1;exitX=1;exitY=0.5;exitDx=0;exitDy=0;entryX=0.008;entryY=0.652;entryDx=0;entryDy=0;entryPerimeter=0;" parent="1" source="_47NS-0Bb0KeoE0VQuBK-24" target="_47NS-0Bb0KeoE0VQuBK-37" edge="1">
          <mxGeometry relative="1" as="geometry" />
        </mxCell>
        <mxCell id="RFYzDGtTMop1sDjm84ll-2" style="edgeStyle=orthogonalEdgeStyle;rounded=0;orthogonalLoop=1;jettySize=auto;html=1;exitX=1;exitY=0.5;exitDx=0;exitDy=0;" parent="1" source="_47NS-0Bb0KeoE0VQuBK-54" target="RFYzDGtTMop1sDjm84ll-1" edge="1">
          <mxGeometry relative="1" as="geometry" />
        </mxCell>
        <mxCell id="_47NS-0Bb0KeoE0VQuBK-54" value="landscape" style="rounded=0;whiteSpace=wrap;html=1;" parent="1" vertex="1">
          <mxGeometry x="1240" y="660" width="120" height="60" as="geometry" />
        </mxCell>
        <mxCell id="RFYzDGtTMop1sDjm84ll-1" value="services/ capabilities" style="rounded=0;whiteSpace=wrap;html=1;fillColor=#d5e8d4;strokeColor=#82b366;" parent="1" vertex="1">
          <mxGeometry x="1420" y="660" width="120" height="60" as="geometry" />
        </mxCell>
        <mxCell id="RFYzDGtTMop1sDjm84ll-3" value="wishlist" style="rounded=0;whiteSpace=wrap;html=1;fillColor=#d5e8d4;strokeColor=#82b366;" parent="1" vertex="1">
          <mxGeometry x="-130" y="130" width="120" height="60" as="geometry" />
        </mxCell>
        <mxCell id="RFYzDGtTMop1sDjm84ll-4" value="not sure if valuable" style="rounded=0;whiteSpace=wrap;html=1;fillColor=#f8cecc;strokeColor=#b85450;" parent="1" vertex="1">
          <mxGeometry x="-130" y="210" width="120" height="60" as="geometry" />
        </mxCell>
        <mxCell id="RFYzDGtTMop1sDjm84ll-5" value="not sure of location" style="rounded=0;whiteSpace=wrap;html=1;fillColor=#fff2cc;strokeColor=#d6b656;" parent="1" vertex="1">
          <mxGeometry x="-130" y="290" width="120" height="60" as="geometry" />
        </mxCell>
        <mxCell id="RFYzDGtTMop1sDjm84ll-6" value="guilds" style="rounded=0;whiteSpace=wrap;html=1;fillColor=#fff2cc;strokeColor=#d6b656;" parent="1" vertex="1">
          <mxGeometry x="1090" y="1810" width="120" height="60" as="geometry" />
        </mxCell>
        <mxCell id="RFYzDGtTMop1sDjm84ll-8" value="expenses &amp;amp; team events" style="rounded=0;whiteSpace=wrap;html=1;" parent="1" vertex="1">
          <mxGeometry x="1090" y="1900" width="120" height="60" as="geometry" />
        </mxCell>
        <mxCell id="RFYzDGtTMop1sDjm84ll-10" value="meetings" style="rounded=0;whiteSpace=wrap;html=1;" parent="1" vertex="1">
          <mxGeometry x="1091" y="1990" width="120" height="60" as="geometry" />
        </mxCell>
        <mxCell id="lC9MLNywModh4IazLdWR-1" value="Culture &amp;amp; values" style="rounded=0;whiteSpace=wrap;html=1;" vertex="1" parent="1">
          <mxGeometry x="1040" y="840" width="120" height="60" as="geometry" />
        </mxCell>
        <mxCell id="lC9MLNywModh4IazLdWR-3" value="Sharepoint -&amp;gt; hr -&amp;gt; Workplace policies -&amp;gt; Arbeidsregelement" style="whiteSpace=wrap;html=1;rounded=0;" vertex="1" parent="1">
          <mxGeometry x="1290" y="1390" width="120" height="60" as="geometry" />
        </mxCell>
        <mxCell id="lC9MLNywModh4IazLdWR-5" style="edgeStyle=orthogonalEdgeStyle;rounded=0;orthogonalLoop=1;jettySize=auto;html=1;entryX=0;entryY=0.5;entryDx=0;entryDy=0;exitX=0.5;exitY=1;exitDx=0;exitDy=0;" edge="1" parent="1" source="lC9MLNywModh4IazLdWR-8" target="lC9MLNywModh4IazLdWR-10">
          <mxGeometry relative="1" as="geometry" />
        </mxCell>
        <mxCell id="lC9MLNywModh4IazLdWR-6" style="edgeStyle=orthogonalEdgeStyle;rounded=0;orthogonalLoop=1;jettySize=auto;html=1;exitX=0.5;exitY=1;exitDx=0;exitDy=0;entryX=0;entryY=0.5;entryDx=0;entryDy=0;" edge="1" parent="1" source="lC9MLNywModh4IazLdWR-8" target="lC9MLNywModh4IazLdWR-9">
          <mxGeometry relative="1" as="geometry" />
        </mxCell>
        <mxCell id="lC9MLNywModh4IazLdWR-7" style="edgeStyle=orthogonalEdgeStyle;rounded=0;orthogonalLoop=1;jettySize=auto;html=1;exitX=0.5;exitY=1;exitDx=0;exitDy=0;entryX=0;entryY=0.5;entryDx=0;entryDy=0;" edge="1" parent="1" source="lC9MLNywModh4IazLdWR-8" target="lC9MLNywModh4IazLdWR-11">
          <mxGeometry relative="1" as="geometry" />
        </mxCell>
        <mxCell id="lC9MLNywModh4IazLdWR-8" value="Onboarding&lt;div&gt;&lt;br&gt;&lt;/div&gt;&lt;div style=&quot;text-align: left;&quot;&gt;Are you a&lt;/div&gt;&lt;div style=&quot;text-align: left;&quot;&gt;Dev?&lt;/div&gt;&lt;div style=&quot;text-align: left;&quot;&gt;TL?&lt;/div&gt;&lt;div style=&quot;text-align: left;&quot;&gt;PO?&lt;/div&gt;" style="rounded=0;whiteSpace=wrap;html=1;" vertex="1" parent="1">
          <mxGeometry x="1950" y="80" width="130" height="100" as="geometry" />
        </mxCell>
        <mxCell id="lC9MLNywModh4IazLdWR-9" value="Dev" style="rounded=0;whiteSpace=wrap;html=1;" vertex="1" parent="1">
          <mxGeometry x="2120" y="300" width="120" height="60" as="geometry" />
        </mxCell>
        <mxCell id="lC9MLNywModh4IazLdWR-13" value="" style="edgeStyle=orthogonalEdgeStyle;rounded=0;orthogonalLoop=1;jettySize=auto;html=1;" edge="1" parent="1" source="lC9MLNywModh4IazLdWR-10" target="lC9MLNywModh4IazLdWR-12">
          <mxGeometry relative="1" as="geometry" />
        </mxCell>
        <mxCell id="lC9MLNywModh4IazLdWR-10" value="TL" style="rounded=0;whiteSpace=wrap;html=1;" vertex="1" parent="1">
          <mxGeometry x="2120" y="220" width="120" height="60" as="geometry" />
        </mxCell>
        <mxCell id="lC9MLNywModh4IazLdWR-11" value="PO" style="rounded=0;whiteSpace=wrap;html=1;" vertex="1" parent="1">
          <mxGeometry x="2120" y="380" width="120" height="60" as="geometry" />
        </mxCell>
        <mxCell id="lC9MLNywModh4IazLdWR-23" style="edgeStyle=orthogonalEdgeStyle;rounded=0;orthogonalLoop=1;jettySize=auto;html=1;exitX=0.5;exitY=1;exitDx=0;exitDy=0;entryX=0;entryY=0.5;entryDx=0;entryDy=0;" edge="1" parent="1" source="lC9MLNywModh4IazLdWR-12" target="lC9MLNywModh4IazLdWR-31">
          <mxGeometry relative="1" as="geometry">
            <mxPoint x="2690" y="335" as="targetPoint" />
          </mxGeometry>
        </mxCell>
        <mxCell id="lC9MLNywModh4IazLdWR-45" style="edgeStyle=orthogonalEdgeStyle;rounded=0;orthogonalLoop=1;jettySize=auto;html=1;exitX=0.5;exitY=1;exitDx=0;exitDy=0;entryX=0;entryY=0.5;entryDx=0;entryDy=0;" edge="1" parent="1" source="lC9MLNywModh4IazLdWR-12" target="lC9MLNywModh4IazLdWR-17">
          <mxGeometry relative="1" as="geometry" />
        </mxCell>
        <mxCell id="lC9MLNywModh4IazLdWR-12" value="Welcome page" style="whiteSpace=wrap;html=1;rounded=0;" vertex="1" parent="1">
          <mxGeometry x="2490" y="220" width="120" height="60" as="geometry" />
        </mxCell>
        <mxCell id="lC9MLNywModh4IazLdWR-47" style="edgeStyle=orthogonalEdgeStyle;rounded=0;orthogonalLoop=1;jettySize=auto;html=1;exitX=1;exitY=0.5;exitDx=0;exitDy=0;entryX=0;entryY=0.5;entryDx=0;entryDy=0;" edge="1" parent="1" source="lC9MLNywModh4IazLdWR-17" target="lC9MLNywModh4IazLdWR-46">
          <mxGeometry relative="1" as="geometry" />
        </mxCell>
        <mxCell id="lC9MLNywModh4IazLdWR-17" value="Administrative info" style="rounded=0;whiteSpace=wrap;html=1;" vertex="1" parent="1">
          <mxGeometry x="2780" y="800" width="120" height="60" as="geometry" />
        </mxCell>
        <mxCell id="lC9MLNywModh4IazLdWR-18" value="Technical setup" style="rounded=0;whiteSpace=wrap;html=1;" vertex="1" parent="1">
          <mxGeometry x="2800" y="1300" width="120" height="60" as="geometry" />
        </mxCell>
        <mxCell id="lC9MLNywModh4IazLdWR-19" value="Development practices" style="rounded=0;whiteSpace=wrap;html=1;" vertex="1" parent="1">
          <mxGeometry x="2800" y="1400" width="120" height="60" as="geometry" />
        </mxCell>
        <mxCell id="lC9MLNywModh4IazLdWR-20" value="Learning and development" style="rounded=0;whiteSpace=wrap;html=1;" vertex="1" parent="1">
          <mxGeometry x="2800" y="1510" width="120" height="60" as="geometry" />
        </mxCell>
        <mxCell id="lC9MLNywModh4IazLdWR-21" value="Health, safety &amp;amp; wellbeing" style="rounded=0;whiteSpace=wrap;html=1;" vertex="1" parent="1">
          <mxGeometry x="2800" y="1610" width="120" height="60" as="geometry" />
        </mxCell>
        <mxCell id="lC9MLNywModh4IazLdWR-22" value="Events &amp;amp; Groups" style="rounded=0;whiteSpace=wrap;html=1;" vertex="1" parent="1">
          <mxGeometry x="2800" y="1710" width="120" height="60" as="geometry" />
        </mxCell>
        <mxCell id="lC9MLNywModh4IazLdWR-24" style="edgeStyle=orthogonalEdgeStyle;rounded=0;orthogonalLoop=1;jettySize=auto;html=1;exitX=1;exitY=0.5;exitDx=0;exitDy=0;entryX=0;entryY=0.5;entryDx=0;entryDy=0;" edge="1" parent="1" source="lC9MLNywModh4IazLdWR-31" target="lC9MLNywModh4IazLdWR-29">
          <mxGeometry relative="1" as="geometry" />
        </mxCell>
        <mxCell id="lC9MLNywModh4IazLdWR-25" style="edgeStyle=orthogonalEdgeStyle;rounded=0;orthogonalLoop=1;jettySize=auto;html=1;exitX=1;exitY=0.5;exitDx=0;exitDy=0;entryX=0;entryY=0.5;entryDx=0;entryDy=0;" edge="1" parent="1" source="lC9MLNywModh4IazLdWR-31" target="lC9MLNywModh4IazLdWR-32">
          <mxGeometry relative="1" as="geometry" />
        </mxCell>
        <mxCell id="lC9MLNywModh4IazLdWR-26" style="edgeStyle=orthogonalEdgeStyle;rounded=0;orthogonalLoop=1;jettySize=auto;html=1;exitX=1;exitY=0.5;exitDx=0;exitDy=0;entryX=0;entryY=0.5;entryDx=0;entryDy=0;" edge="1" parent="1" source="lC9MLNywModh4IazLdWR-31" target="lC9MLNywModh4IazLdWR-34">
          <mxGeometry relative="1" as="geometry" />
        </mxCell>
        <mxCell id="lC9MLNywModh4IazLdWR-27" style="edgeStyle=orthogonalEdgeStyle;rounded=0;orthogonalLoop=1;jettySize=auto;html=1;exitX=1;exitY=0.5;exitDx=0;exitDy=0;entryX=0;entryY=0.5;entryDx=0;entryDy=0;" edge="1" parent="1" source="lC9MLNywModh4IazLdWR-40" target="lC9MLNywModh4IazLdWR-33">
          <mxGeometry relative="1" as="geometry" />
        </mxCell>
        <mxCell id="lC9MLNywModh4IazLdWR-28" style="edgeStyle=orthogonalEdgeStyle;rounded=0;orthogonalLoop=1;jettySize=auto;html=1;exitX=1;exitY=0.5;exitDx=0;exitDy=0;entryX=0;entryY=0.5;entryDx=0;entryDy=0;" edge="1" parent="1" source="lC9MLNywModh4IazLdWR-40" target="lC9MLNywModh4IazLdWR-36">
          <mxGeometry relative="1" as="geometry" />
        </mxCell>
        <mxCell id="lC9MLNywModh4IazLdWR-44" style="edgeStyle=orthogonalEdgeStyle;rounded=0;orthogonalLoop=1;jettySize=auto;html=1;exitX=1;exitY=0.5;exitDx=0;exitDy=0;entryX=0;entryY=0.5;entryDx=0;entryDy=0;" edge="1" parent="1" source="lC9MLNywModh4IazLdWR-29" target="lC9MLNywModh4IazLdWR-43">
          <mxGeometry relative="1" as="geometry" />
        </mxCell>
        <mxCell id="lC9MLNywModh4IazLdWR-29" value="Protime info" style="rounded=0;whiteSpace=wrap;html=1;" vertex="1" parent="1">
          <mxGeometry x="2970" y="300" width="120" height="60" as="geometry" />
        </mxCell>
        <mxCell id="lC9MLNywModh4IazLdWR-30" style="edgeStyle=orthogonalEdgeStyle;rounded=0;orthogonalLoop=1;jettySize=auto;html=1;exitX=1;exitY=0.5;exitDx=0;exitDy=0;entryX=0;entryY=0.5;entryDx=0;entryDy=0;" edge="1" parent="1" source="lC9MLNywModh4IazLdWR-31" target="lC9MLNywModh4IazLdWR-38">
          <mxGeometry relative="1" as="geometry" />
        </mxCell>
        <mxCell id="lC9MLNywModh4IazLdWR-31" value="Organization info" style="rounded=0;whiteSpace=wrap;html=1;" vertex="1" parent="1">
          <mxGeometry x="2790" y="300" width="120" height="60" as="geometry" />
        </mxCell>
        <mxCell id="lC9MLNywModh4IazLdWR-32" value="sdworx info" style="rounded=0;whiteSpace=wrap;html=1;" vertex="1" parent="1">
          <mxGeometry x="2970" y="380" width="120" height="60" as="geometry" />
        </mxCell>
        <mxCell id="lC9MLNywModh4IazLdWR-33" value="team setup" style="rounded=0;whiteSpace=wrap;html=1;" vertex="1" parent="1">
          <mxGeometry x="3430" y="270" width="120" height="60" as="geometry" />
        </mxCell>
        <mxCell id="lC9MLNywModh4IazLdWR-34" value="key contacts&lt;div&gt;&amp;amp; contact info&lt;/div&gt;" style="rounded=0;whiteSpace=wrap;html=1;" vertex="1" parent="1">
          <mxGeometry x="2970" y="470" width="120" height="60" as="geometry" />
        </mxCell>
        <mxCell id="lC9MLNywModh4IazLdWR-35" style="edgeStyle=orthogonalEdgeStyle;rounded=0;orthogonalLoop=1;jettySize=auto;html=1;exitX=1;exitY=0.5;exitDx=0;exitDy=0;" edge="1" parent="1" source="lC9MLNywModh4IazLdWR-36" target="lC9MLNywModh4IazLdWR-37">
          <mxGeometry relative="1" as="geometry" />
        </mxCell>
        <mxCell id="lC9MLNywModh4IazLdWR-36" value="landscape" style="rounded=0;whiteSpace=wrap;html=1;" vertex="1" parent="1">
          <mxGeometry x="3430" y="350" width="120" height="60" as="geometry" />
        </mxCell>
        <mxCell id="lC9MLNywModh4IazLdWR-37" value="services/ capabilities" style="rounded=0;whiteSpace=wrap;html=1;fillColor=#d5e8d4;strokeColor=#82b366;" vertex="1" parent="1">
          <mxGeometry x="3610" y="350" width="120" height="60" as="geometry" />
        </mxCell>
        <mxCell id="lC9MLNywModh4IazLdWR-56" style="edgeStyle=orthogonalEdgeStyle;rounded=0;orthogonalLoop=1;jettySize=auto;html=1;exitX=1;exitY=0.5;exitDx=0;exitDy=0;" edge="1" parent="1" source="lC9MLNywModh4IazLdWR-38" target="lC9MLNywModh4IazLdWR-55">
          <mxGeometry relative="1" as="geometry" />
        </mxCell>
        <mxCell id="lC9MLNywModh4IazLdWR-38" value="Culture &amp;amp; values" style="rounded=0;whiteSpace=wrap;html=1;" vertex="1" parent="1">
          <mxGeometry x="2970" y="560" width="120" height="60" as="geometry" />
        </mxCell>
        <mxCell id="lC9MLNywModh4IazLdWR-39" value="The Product" style="rounded=0;whiteSpace=wrap;html=1;" vertex="1" parent="1">
          <mxGeometry x="2800" y="1040" width="120" height="60" as="geometry" />
        </mxCell>
        <mxCell id="lC9MLNywModh4IazLdWR-41" value="" style="edgeStyle=orthogonalEdgeStyle;rounded=0;orthogonalLoop=1;jettySize=auto;html=1;exitX=1;exitY=0.5;exitDx=0;exitDy=0;entryX=0;entryY=0.5;entryDx=0;entryDy=0;" edge="1" parent="1" source="lC9MLNywModh4IazLdWR-29" target="lC9MLNywModh4IazLdWR-40">
          <mxGeometry relative="1" as="geometry">
            <mxPoint x="3090" y="330" as="sourcePoint" />
            <mxPoint x="3430" y="380" as="targetPoint" />
          </mxGeometry>
        </mxCell>
        <mxCell id="lC9MLNywModh4IazLdWR-40" value="Technology info" style="rounded=0;whiteSpace=wrap;html=1;" vertex="1" parent="1">
          <mxGeometry x="3170" y="300" width="120" height="60" as="geometry" />
        </mxCell>
        <mxCell id="lC9MLNywModh4IazLdWR-43" value="Others" style="rounded=0;whiteSpace=wrap;html=1;" vertex="1" parent="1">
          <mxGeometry x="3170" y="390" width="120" height="60" as="geometry" />
        </mxCell>
        <mxCell id="lC9MLNywModh4IazLdWR-49" value="" style="edgeStyle=orthogonalEdgeStyle;rounded=0;orthogonalLoop=1;jettySize=auto;html=1;" edge="1" parent="1" source="lC9MLNywModh4IazLdWR-46" target="lC9MLNywModh4IazLdWR-48">
          <mxGeometry relative="1" as="geometry" />
        </mxCell>
        <mxCell id="lC9MLNywModh4IazLdWR-52" style="edgeStyle=orthogonalEdgeStyle;rounded=0;orthogonalLoop=1;jettySize=auto;html=1;exitX=1;exitY=0.5;exitDx=0;exitDy=0;entryX=0;entryY=0.5;entryDx=0;entryDy=0;" edge="1" parent="1" source="lC9MLNywModh4IazLdWR-46" target="lC9MLNywModh4IazLdWR-51">
          <mxGeometry relative="1" as="geometry" />
        </mxCell>
        <mxCell id="lC9MLNywModh4IazLdWR-46" value="HR Policies &amp;amp; Procedures" style="rounded=0;whiteSpace=wrap;html=1;" vertex="1" parent="1">
          <mxGeometry x="2990" y="760" width="120" height="60" as="geometry" />
        </mxCell>
        <mxCell id="lC9MLNywModh4IazLdWR-48" value="&lt;a href=&quot;https://sd.sharepoint.com/sites/protime-hrcomm&quot;&gt;HR - Home (sharepoint.com)&lt;/a&gt;" style="whiteSpace=wrap;html=1;rounded=0;" vertex="1" parent="1">
          <mxGeometry x="3190" y="760" width="120" height="60" as="geometry" />
        </mxCell>
        <mxCell id="lC9MLNywModh4IazLdWR-54" value="" style="edgeStyle=orthogonalEdgeStyle;rounded=0;orthogonalLoop=1;jettySize=auto;html=1;" edge="1" parent="1" source="lC9MLNywModh4IazLdWR-51" target="lC9MLNywModh4IazLdWR-53">
          <mxGeometry relative="1" as="geometry" />
        </mxCell>
        <mxCell id="lC9MLNywModh4IazLdWR-51" value="Workplace policies" style="rounded=0;whiteSpace=wrap;html=1;" vertex="1" parent="1">
          <mxGeometry x="3190" y="860" width="120" height="60" as="geometry" />
        </mxCell>
        <UserObject label="&#xa;&lt;a href=&quot;https://sd.sharepoint.com/sites/Protime-HRComm/SitePages/Workplace%20policies%20general.aspx&quot;&gt;Workplace policies (sharepoint.com)&lt;/a&gt;&#xa;&#xa;" link="&#xa;&lt;a href=&quot;https://sd.sharepoint.com/sites/Protime-HRComm/SitePages/Workplace%20policies%20general.aspx&quot;&gt;Workplace policies (sharepoint.com)&lt;/a&gt;&#xa;&#xa;" id="lC9MLNywModh4IazLdWR-53">
          <mxCell style="whiteSpace=wrap;html=1;rounded=0;" vertex="1" parent="1">
            <mxGeometry x="3390" y="860" width="120" height="60" as="geometry" />
          </mxCell>
        </UserObject>
        <mxCell id="lC9MLNywModh4IazLdWR-55" value="&lt;a href=&quot;https://sd.sharepoint.com/sites/protime-gptwcomm&quot;&gt;Our Company Culture (sharepoint.com)&lt;/a&gt;" style="rounded=0;whiteSpace=wrap;html=1;" vertex="1" parent="1">
          <mxGeometry x="3180" y="560" width="120" height="60" as="geometry" />
        </mxCell>
        <mxCell id="lC9MLNywModh4IazLdWR-69" style="edgeStyle=orthogonalEdgeStyle;rounded=0;orthogonalLoop=1;jettySize=auto;html=1;exitX=0.5;exitY=1;exitDx=0;exitDy=0;entryX=0;entryY=0.5;entryDx=0;entryDy=0;" edge="1" parent="1" source="lC9MLNywModh4IazLdWR-62" target="lC9MLNywModh4IazLdWR-63">
          <mxGeometry relative="1" as="geometry" />
        </mxCell>
        <mxCell id="lC9MLNywModh4IazLdWR-80" style="edgeStyle=orthogonalEdgeStyle;rounded=0;orthogonalLoop=1;jettySize=auto;html=1;exitX=0.5;exitY=1;exitDx=0;exitDy=0;entryX=0;entryY=0.5;entryDx=0;entryDy=0;" edge="1" parent="1" source="lC9MLNywModh4IazLdWR-62" target="lC9MLNywModh4IazLdWR-64">
          <mxGeometry relative="1" as="geometry" />
        </mxCell>
        <mxCell id="lC9MLNywModh4IazLdWR-82" style="edgeStyle=orthogonalEdgeStyle;rounded=0;orthogonalLoop=1;jettySize=auto;html=1;exitX=0.5;exitY=1;exitDx=0;exitDy=0;entryX=0;entryY=0.5;entryDx=0;entryDy=0;" edge="1" parent="1" source="lC9MLNywModh4IazLdWR-62" target="lC9MLNywModh4IazLdWR-65">
          <mxGeometry relative="1" as="geometry" />
        </mxCell>
        <mxCell id="lC9MLNywModh4IazLdWR-95" style="edgeStyle=orthogonalEdgeStyle;rounded=0;orthogonalLoop=1;jettySize=auto;html=1;exitX=0.5;exitY=1;exitDx=0;exitDy=0;entryX=0;entryY=0.5;entryDx=0;entryDy=0;" edge="1" parent="1" source="lC9MLNywModh4IazLdWR-62" target="lC9MLNywModh4IazLdWR-66">
          <mxGeometry relative="1" as="geometry" />
        </mxCell>
        <mxCell id="lC9MLNywModh4IazLdWR-96" style="edgeStyle=orthogonalEdgeStyle;rounded=0;orthogonalLoop=1;jettySize=auto;html=1;exitX=0.5;exitY=1;exitDx=0;exitDy=0;entryX=0;entryY=0.5;entryDx=0;entryDy=0;" edge="1" parent="1" source="lC9MLNywModh4IazLdWR-62" target="lC9MLNywModh4IazLdWR-67">
          <mxGeometry relative="1" as="geometry" />
        </mxCell>
        <mxCell id="lC9MLNywModh4IazLdWR-98" style="edgeStyle=orthogonalEdgeStyle;rounded=0;orthogonalLoop=1;jettySize=auto;html=1;exitX=0.5;exitY=1;exitDx=0;exitDy=0;entryX=0;entryY=0.5;entryDx=0;entryDy=0;" edge="1" parent="1" source="lC9MLNywModh4IazLdWR-62" target="lC9MLNywModh4IazLdWR-68">
          <mxGeometry relative="1" as="geometry" />
        </mxCell>
        <mxCell id="lC9MLNywModh4IazLdWR-62" value="Onboarding / training Offboarding" style="rounded=0;whiteSpace=wrap;html=1;" vertex="1" parent="1">
          <mxGeometry x="-700" y="1380" width="120" height="60" as="geometry" />
        </mxCell>
        <mxCell id="lC9MLNywModh4IazLdWR-71" style="edgeStyle=orthogonalEdgeStyle;rounded=0;orthogonalLoop=1;jettySize=auto;html=1;exitX=1;exitY=0.5;exitDx=0;exitDy=0;" edge="1" parent="1" source="lC9MLNywModh4IazLdWR-63" target="lC9MLNywModh4IazLdWR-70">
          <mxGeometry relative="1" as="geometry" />
        </mxCell>
        <mxCell id="lC9MLNywModh4IazLdWR-73" style="edgeStyle=orthogonalEdgeStyle;rounded=0;orthogonalLoop=1;jettySize=auto;html=1;exitX=1;exitY=0.5;exitDx=0;exitDy=0;entryX=0;entryY=0.5;entryDx=0;entryDy=0;" edge="1" parent="1" source="lC9MLNywModh4IazLdWR-63" target="lC9MLNywModh4IazLdWR-72">
          <mxGeometry relative="1" as="geometry" />
        </mxCell>
        <mxCell id="lC9MLNywModh4IazLdWR-75" style="edgeStyle=orthogonalEdgeStyle;rounded=0;orthogonalLoop=1;jettySize=auto;html=1;exitX=1;exitY=0.5;exitDx=0;exitDy=0;entryX=0;entryY=0.5;entryDx=0;entryDy=0;" edge="1" parent="1" source="lC9MLNywModh4IazLdWR-63" target="lC9MLNywModh4IazLdWR-74">
          <mxGeometry relative="1" as="geometry" />
        </mxCell>
        <mxCell id="lC9MLNywModh4IazLdWR-63" value="Interviewing Developpers" style="rounded=0;whiteSpace=wrap;html=1;fillColor=#fff2cc;strokeColor=#d6b656;" vertex="1" parent="1">
          <mxGeometry x="-540" y="1490" width="120" height="60" as="geometry" />
        </mxCell>
        <mxCell id="lC9MLNywModh4IazLdWR-64" value="Guidelines for onboarding developers" style="rounded=0;whiteSpace=wrap;html=1;fillColor=#dae8fc;strokeColor=#6c8ebf;" vertex="1" parent="1">
          <mxGeometry x="-540" y="1860" width="120" height="60" as="geometry" />
        </mxCell>
        <mxCell id="lC9MLNywModh4IazLdWR-84" value="" style="edgeStyle=orthogonalEdgeStyle;rounded=0;orthogonalLoop=1;jettySize=auto;html=1;" edge="1" parent="1" source="lC9MLNywModh4IazLdWR-65" target="lC9MLNywModh4IazLdWR-83">
          <mxGeometry relative="1" as="geometry" />
        </mxCell>
        <mxCell id="lC9MLNywModh4IazLdWR-89" style="edgeStyle=orthogonalEdgeStyle;rounded=0;orthogonalLoop=1;jettySize=auto;html=1;exitX=1;exitY=0.5;exitDx=0;exitDy=0;entryX=0;entryY=0.5;entryDx=0;entryDy=0;" edge="1" parent="1" source="lC9MLNywModh4IazLdWR-65" target="lC9MLNywModh4IazLdWR-85">
          <mxGeometry relative="1" as="geometry" />
        </mxCell>
        <mxCell id="lC9MLNywModh4IazLdWR-90" style="edgeStyle=orthogonalEdgeStyle;rounded=0;orthogonalLoop=1;jettySize=auto;html=1;exitX=1;exitY=0.5;exitDx=0;exitDy=0;entryX=0;entryY=0.5;entryDx=0;entryDy=0;" edge="1" parent="1" source="lC9MLNywModh4IazLdWR-65" target="lC9MLNywModh4IazLdWR-86">
          <mxGeometry relative="1" as="geometry" />
        </mxCell>
        <mxCell id="lC9MLNywModh4IazLdWR-91" style="edgeStyle=orthogonalEdgeStyle;rounded=0;orthogonalLoop=1;jettySize=auto;html=1;exitX=1;exitY=0.5;exitDx=0;exitDy=0;entryX=0;entryY=0.5;entryDx=0;entryDy=0;" edge="1" parent="1" source="lC9MLNywModh4IazLdWR-65" target="lC9MLNywModh4IazLdWR-87">
          <mxGeometry relative="1" as="geometry" />
        </mxCell>
        <mxCell id="lC9MLNywModh4IazLdWR-92" style="edgeStyle=orthogonalEdgeStyle;rounded=0;orthogonalLoop=1;jettySize=auto;html=1;exitX=1;exitY=0.5;exitDx=0;exitDy=0;entryX=0;entryY=0.5;entryDx=0;entryDy=0;" edge="1" parent="1" source="lC9MLNywModh4IazLdWR-65" target="lC9MLNywModh4IazLdWR-88">
          <mxGeometry relative="1" as="geometry" />
        </mxCell>
        <mxCell id="lC9MLNywModh4IazLdWR-65" value="Account setups" style="rounded=0;whiteSpace=wrap;html=1;" vertex="1" parent="1">
          <mxGeometry x="-540" y="2020" width="120" height="60" as="geometry" />
        </mxCell>
        <mxCell id="lC9MLNywModh4IazLdWR-66" value="Other onboarding steps" style="rounded=0;whiteSpace=wrap;html=1;" vertex="1" parent="1">
          <mxGeometry x="-535" y="2560" width="120" height="60" as="geometry" />
        </mxCell>
        <mxCell id="lC9MLNywModh4IazLdWR-67" value="Training" style="rounded=0;whiteSpace=wrap;html=1;fillColor=#fff2cc;strokeColor=#d6b656;" vertex="1" parent="1">
          <mxGeometry x="-520" y="2840" width="120" height="60" as="geometry" />
        </mxCell>
        <mxCell id="lC9MLNywModh4IazLdWR-68" value="Offboarding" style="rounded=0;whiteSpace=wrap;html=1;fillColor=#fff2cc;strokeColor=#d6b656;" vertex="1" parent="1">
          <mxGeometry x="-510" y="2960" width="120" height="60" as="geometry" />
        </mxCell>
        <mxCell id="lC9MLNywModh4IazLdWR-70" value="Excercise: Code review" style="rounded=0;whiteSpace=wrap;html=1;fillColor=#fff2cc;strokeColor=#d6b656;" vertex="1" parent="1">
          <mxGeometry x="-320" y="1490" width="120" height="60" as="geometry" />
        </mxCell>
        <mxCell id="lC9MLNywModh4IazLdWR-72" value="Exercise: modelling session" style="rounded=0;whiteSpace=wrap;html=1;fillColor=#fff2cc;strokeColor=#d6b656;" vertex="1" parent="1">
          <mxGeometry x="-320" y="1590" width="120" height="60" as="geometry" />
        </mxCell>
        <mxCell id="lC9MLNywModh4IazLdWR-74" value="Exercise: TDD" style="rounded=0;whiteSpace=wrap;html=1;fillColor=#fff2cc;strokeColor=#d6b656;" vertex="1" parent="1">
          <mxGeometry x="-320" y="1700" width="120" height="60" as="geometry" />
        </mxCell>
        <mxCell id="lC9MLNywModh4IazLdWR-76" value="How to support onboarder" style="rounded=0;whiteSpace=wrap;html=1;fillColor=#dae8fc;strokeColor=#6c8ebf;" vertex="1" parent="1">
          <mxGeometry x="-950" y="1220" width="120" height="60" as="geometry" />
        </mxCell>
        <mxCell id="lC9MLNywModh4IazLdWR-77" value="wishlist" style="rounded=0;whiteSpace=wrap;html=1;fillColor=#d5e8d4;strokeColor=#82b366;" vertex="1" parent="1">
          <mxGeometry x="-950" y="1310" width="120" height="60" as="geometry" />
        </mxCell>
        <mxCell id="lC9MLNywModh4IazLdWR-78" value="not sure if valuable" style="rounded=0;whiteSpace=wrap;html=1;fillColor=#f8cecc;strokeColor=#b85450;" vertex="1" parent="1">
          <mxGeometry x="-950" y="1390" width="120" height="60" as="geometry" />
        </mxCell>
        <mxCell id="lC9MLNywModh4IazLdWR-79" value="Wrong location" style="rounded=0;whiteSpace=wrap;html=1;fillColor=#fff2cc;strokeColor=#d6b656;" vertex="1" parent="1">
          <mxGeometry x="-950" y="1470" width="120" height="60" as="geometry" />
        </mxCell>
        <mxCell id="lC9MLNywModh4IazLdWR-81" value="Are you onboarding or being onboarded?" style="rounded=0;whiteSpace=wrap;html=1;fillColor=#e1d5e7;strokeColor=#9673a6;" vertex="1" parent="1">
          <mxGeometry x="425" y="480" width="120" height="60" as="geometry" />
        </mxCell>
        <mxCell id="lC9MLNywModh4IazLdWR-83" value="Confluence account setup" style="whiteSpace=wrap;html=1;rounded=0;" vertex="1" parent="1">
          <mxGeometry x="-340" y="2020" width="120" height="60" as="geometry" />
        </mxCell>
        <mxCell id="lC9MLNywModh4IazLdWR-85" value="Gitlab account setup" style="rounded=0;whiteSpace=wrap;html=1;" vertex="1" parent="1">
          <mxGeometry x="-340" y="2120" width="120" height="60" as="geometry" />
        </mxCell>
        <mxCell id="lC9MLNywModh4IazLdWR-86" value="Octopus account setup" style="rounded=0;whiteSpace=wrap;html=1;" vertex="1" parent="1">
          <mxGeometry x="-340" y="2230" width="120" height="60" as="geometry" />
        </mxCell>
        <mxCell id="lC9MLNywModh4IazLdWR-87" value="Slack account setup" style="rounded=0;whiteSpace=wrap;html=1;" vertex="1" parent="1">
          <mxGeometry x="-340" y="2340" width="120" height="60" as="geometry" />
        </mxCell>
        <mxCell id="lC9MLNywModh4IazLdWR-88" value="Innform account setup" style="rounded=0;whiteSpace=wrap;html=1;" vertex="1" parent="1">
          <mxGeometry x="-340" y="2430" width="120" height="60" as="geometry" />
        </mxCell>
        <mxCell id="lC9MLNywModh4IazLdWR-93" value="huapii setup&lt;div&gt;meet&amp;amp;greet&lt;/div&gt;&lt;div&gt;introduction to kiosks&lt;/div&gt;" style="shape=note;whiteSpace=wrap;html=1;backgroundOutline=1;darkOpacity=0.05;" vertex="1" parent="1">
          <mxGeometry x="-430" y="2600" width="80" height="120" as="geometry" />
        </mxCell>
        <mxCell id="lC9MLNywModh4IazLdWR-94" value="how team should help onboard dev" style="shape=note;whiteSpace=wrap;html=1;backgroundOutline=1;darkOpacity=0.05;" vertex="1" parent="1">
          <mxGeometry x="-430" y="1890" width="80" height="100" as="geometry" />
        </mxCell>
      </root>
    </mxGraphModel>
  </diagram>
</mxfile>
